<?xml version="1.0" standalone="no"?>
<!DOCTYPE svg PUBLIC "-//W3C//DTD SVG 20010904//EN"
 "http://www.w3.org/TR/2001/REC-SVG-20010904/DTD/svg10.dtd">
<svg version="1.0" xmlns="http://www.w3.org/2000/svg"
 width="32.000000pt" height="32.000000pt" viewBox="0 0 32.000000 32.000000"
 preserveAspectRatio="xMidYMid meet">
<metadata>
Created by potrace 1.16, written by Peter Selinger 2001-2019
</metadata>
<g transform="translate(0.000000,32.000000) scale(0.100000,-0.100000)"
fill="#000000" stroke="none">
<path d="M74 291 c-60 -36 -74 -65 -74 -152 0 -69 3 -81 26 -108 l26 -31 108
0 108 0 26 31 c23 27 26 39 26 109 0 70 -3 82 -26 110 -15 17 -39 37 -55 45
-40 21 -127 19 -165 -4z m162 -10 c60 -37 81 -127 44 -189 -57 -94 -183 -94
-240 0 -37 62 -16 152 44 189 40 25 112 25 152 0z"/>
</g>
</svg>
